<?xml version="1.0" encoding="UTF-8"?>
<svg version="1.1" xmlns="http://www.w3.org/2000/svg" width="512" height="512">
<path d="M0 0 C0.80224503 -0.0049649 1.60449005 -0.00992981 2.43104553 -0.01504517 C5.07448189 -0.02960399 7.71785833 -0.03645677 10.36132812 -0.04199219 C12.20308432 -0.04774694 14.0448405 -0.05350463 15.88659668 -0.05926514 C19.74324827 -0.06975593 23.59987913 -0.07561178 27.45654297 -0.07910156 C32.39628668 -0.08459525 37.33575601 -0.10864999 42.27541351 -0.13707352 C46.07754317 -0.1556984 49.87960653 -0.16090532 53.68177795 -0.16243744 C55.50303148 -0.16546268 57.32428388 -0.17348687 59.14549255 -0.18662262 C61.69226026 -0.20368697 64.23835449 -0.20180255 66.78515625 -0.1953125 C67.91057579 -0.20913467 67.91057579 -0.20913467 69.05873108 -0.22323608 C73.49230974 -0.18786289 76.40428549 0.35268747 79.89257812 3.16113281 C80.70507812 5.84863281 80.70507812 5.84863281 80.89257812 8.16113281 C81.81369385 8.12971191 81.81369385 8.12971191 82.75341797 8.09765625 C85.5912983 8.01345248 88.42891465 7.96214859 91.26757812 7.91113281 C92.23308594 7.87761719 93.19859375 7.84410156 94.19335938 7.80957031 C101.43211097 7.71240586 108.93601081 8.31854085 114.38473511 13.61030579 C118.01733827 17.63352096 120.46079064 21.73490893 122.63476562 26.67285156 C123.12227295 27.74188721 123.12227295 27.74188721 123.61962891 28.83251953 C124.68030984 31.16626892 125.7240371 33.50717539 126.76757812 35.84863281 C127.51812635 37.50961046 128.2696084 39.17016642 129.02197266 40.83032227 C131.3292755 45.93300064 133.61322434 51.04592076 135.89257812 56.16113281 C136.57355747 57.68717905 137.25454668 59.21322088 137.93554688 60.73925781 C140.5363716 66.57198293 143.13072536 72.40754787 145.71459961 78.24780273 C151.78618259 91.96689604 157.96539079 105.63647771 164.15966797 119.30053711 C164.53498657 120.12861374 164.91030518 120.95669037 165.29699707 121.80986023 C166.03975129 123.44778105 166.78314921 125.08541015 167.52722168 126.72273254 C169.50040655 131.06886858 171.45567069 135.42217692 173.38916016 139.78613281 C174.0030233 141.16647705 174.0030233 141.16647705 174.62928772 142.57470703 C175.41604178 144.3454642 176.19911733 146.1178616 176.97801208 147.89208984 C177.33081741 148.68470215 177.68362274 149.47731445 178.04711914 150.29394531 C178.5104641 151.34412842 178.5104641 151.34412842 178.98316956 152.41552734 C179.87841603 154.34723955 179.87841603 154.34723955 181.89257812 156.16113281 C184.07382403 156.49165736 184.07382403 156.49165736 186.61767578 156.47998047 C187.59854156 156.49985016 188.57940735 156.51971985 189.58999634 156.54019165 C190.65148895 156.55174286 191.71298157 156.56329407 192.80664062 156.57519531 C193.89141693 156.59456146 194.97619324 156.61392761 196.09384155 156.63388062 C199.56833971 156.69379707 203.04287079 156.7401102 206.51757812 156.78613281 C208.8691553 156.82430147 211.22071834 156.86335253 213.57226562 156.90332031 C219.34557782 156.9995084 225.11897479 157.08452034 230.89257812 157.16113281 C230.8881369 156.07198578 230.88369568 154.98283875 230.87911987 153.86068726 C230.83855609 143.59070012 230.80858519 133.32072927 230.78895378 123.05068016 C230.77852177 117.7708947 230.76437311 112.49117398 230.74169922 107.21142578 C230.71995021 102.11508168 230.70800511 97.01879981 230.70282364 91.92241287 C230.69913159 89.97918341 230.69192196 88.0359573 230.68111801 86.09275436 C230.66657583 83.36856507 230.66460134 80.6446321 230.66552734 77.92041016 C230.65833679 77.11911682 230.65114624 76.31782349 230.64373779 75.49224854 C230.66571855 69.50647862 231.27504679 64.98085557 235.39257812 60.34863281 C239.58579006 56.67957237 242.92806745 57.00159535 248.28613281 56.98413086 C249.15460846 56.97755966 250.02308411 56.97098846 250.9178772 56.96421814 C253.80007 56.94446252 256.68221062 56.93281694 259.56445312 56.92285156 C261.03986446 56.91673827 261.03986446 56.91673827 262.54508209 56.91050148 C267.75205781 56.88963016 272.9590071 56.87533356 278.16601562 56.8659668 C283.54412578 56.85490574 288.92182181 56.82051226 294.29978561 56.7807951 C298.43480192 56.75464522 302.56971937 56.74627635 306.7048111 56.74268532 C308.68713424 56.73781442 310.66945282 56.72618616 312.65169525 56.70764732 C315.42861176 56.68329275 318.20445464 56.68421428 320.98144531 56.69116211 C322.2067244 56.67194702 322.2067244 56.67194702 323.45675659 56.65234375 C328.72303111 56.70029357 331.72428803 57.65820881 335.89257812 61.16113281 C338.81464698 65.5442361 339.01795516 69.40494558 339.01283264 74.58381653 C339.01489464 76.19702286 339.01489464 76.19702286 339.01699829 77.84281921 C339.01340302 79.01238663 339.00980774 80.18195404 339.00610352 81.38696289 C339.00624954 82.62639648 339.00639557 83.86583008 339.00654602 85.14282227 C339.0059695 88.53293793 339.00096059 91.9229924 338.99397206 95.31309724 C338.98771293 98.85917623 338.9871327 102.40525606 338.98594666 105.95133972 C338.98284089 112.66250685 338.97463767 119.37365765 338.96459717 126.08481759 C338.9534126 133.72686568 338.94791967 141.36891456 338.94290173 149.0109688 C338.93245443 164.72769959 338.91486959 180.44441409 338.89257812 196.16113281 C340.06248291 196.13575439 341.2323877 196.11037598 342.43774414 196.08422852 C343.98648322 196.06370376 345.5352306 196.04379821 347.08398438 196.02441406 C347.85343384 196.00608521 348.6228833 195.98775635 349.41564941 195.96887207 C354.59619147 195.92024805 358.23269145 196.48490433 362.54492188 199.57910156 C364.265221 201.59858314 365.02634719 203.67124195 365.89257812 206.16113281 C366.56160156 206.12632812 367.230625 206.09152344 367.91992188 206.05566406 C393.56787842 205.33270153 414.50759748 215.04148248 433.46191406 231.75024414 C434.95459622 233.22229366 436.14951516 234.77829636 437.40039062 236.45800781 C439.6375859 239.38924013 439.6375859 239.38924013 442.83007812 239.86035156 C443.84070313 239.85648438 444.85132813 239.85261719 445.89257812 239.84863281 C450.50669935 239.86628889 453.13055973 240.40008002 456.89257812 243.16113281 C458.33688667 246.04974991 458.26946318 247.95760982 457.89257812 251.16113281 C455.39257812 253.84863281 455.39257812 253.84863281 452.89257812 256.16113281 C452.89257812 260.19337083 454.60434679 263.20036904 456.26757812 266.78613281 C458.87307909 272.54067713 460.88418019 277.88665678 461.89257812 284.16113281 C462.66601562 284.11472656 463.43945312 284.06832031 464.23632812 284.02050781 C471.04818264 283.78445345 476.35376133 283.9204762 481.89257812 288.16113281 C486.24115784 292.34469946 489.61290233 296.37413101 490.22851562 302.50878906 C490.24140625 303.7346875 490.25429688 304.96058594 490.26757812 306.22363281 C490.2959375 307.45210938 490.32429687 308.68058594 490.35351562 309.94628906 C489.89257812 313.16113281 489.89257812 313.16113281 488.2862196 314.83846533 C485.09421437 316.60228901 482.7769182 316.53719864 479.13337708 316.53865623 C478.45123386 316.54301656 477.76909065 316.54737688 477.06627643 316.55186933 C474.76965158 316.56285905 472.4736229 316.55238669 470.17700195 316.54208374 C468.51822762 316.54553884 466.85945558 316.55030241 465.20068836 316.55626547 C460.63395339 316.56882541 456.06740573 316.56258247 451.50066996 316.55330682 C446.57899594 316.54653705 441.6573548 316.55698724 436.73568726 316.56524658 C427.09076765 316.5786083 417.44591797 316.57569533 407.80099559 316.56700866 C399.96454337 316.5602421 392.12811079 316.55931093 384.29165649 316.56258011 C383.17765813 316.56303981 382.06365976 316.56349951 380.91590387 316.56397314 C378.65305892 316.56493228 376.39021398 316.56590492 374.12736905 316.56689091 C352.89307722 316.57545195 331.6588242 316.56559948 310.42453873 316.54948981 C292.19218607 316.53608599 273.95989069 316.53841388 255.72753906 316.55224609 C234.57084935 316.56828931 213.41419368 316.57462791 192.25749874 316.5654093 C190.00283242 316.56445362 187.74816609 316.56351051 185.49349976 316.56258011 C184.38407023 316.56211728 183.2746407 316.56165446 182.13159209 316.5611776 C174.3017192 316.55858393 166.47186785 316.56296682 158.64199829 316.57001877 C149.10406291 316.57841999 139.56620163 316.5761827 130.02827477 316.56017654 C125.15896923 316.55227523 120.28978736 316.54923378 115.42048264 316.55912399 C110.96699493 316.56803303 106.51374609 316.56320099 102.0602802 316.54719134 C100.44526767 316.54382739 98.83023514 316.54557359 97.21523535 316.5528187 C95.02712598 316.56188536 92.83984465 316.55264255 90.65177917 316.53865623 C89.43428576 316.53816918 88.21679235 316.53768212 86.9624052 316.5371803 C83.61595392 316.12724692 82.23046118 315.55556357 79.89257812 313.16113281 C77.97279972 306.30478135 79.33077602 300.06162244 82.64257812 293.91113281 C86.36457216 289.36202899 90.19038518 285.96954257 95.89257812 284.16113281 C99.22460937 283.96582031 99.22460937 283.96582031 102.70507812 284.03613281 C103.86652344 284.05417969 105.02796875 284.07222656 106.22460938 284.09082031 C107.54525391 284.125625 107.54525391 284.125625 108.89257812 284.16113281 C109.07820312 283.00613281 109.26382813 281.85113281 109.45507812 280.66113281 C110.52542422 275.7703543 112.38397341 271.34960042 114.39257812 266.78613281 C114.85579468 265.73329102 114.85579468 265.73329102 115.32836914 264.65917969 C116.67993545 261.65004577 118.05880593 258.9117911 119.89257812 256.16113281 C118.99539062 256.00644531 118.99539062 256.00644531 118.08007812 255.84863281 C115.50054475 255.03792232 114.51066437 254.31858114 112.89257812 252.16113281 C112.01757812 249.78613281 112.01757812 249.78613281 111.89257812 247.16113281 C113.51413441 243.6747868 114.65711104 242.31811087 117.89257812 240.16113281 C119.81026703 240.24438577 121.72693307 240.35211801 123.64257812 240.47363281 C132.57173833 239.98640692 136.63743962 234.0850219 142.31835938 227.91113281 C146.60475034 223.27448312 151.33466409 220.11564798 156.89257812 217.16113281 C157.69824219 216.70609375 158.50390625 216.25105469 159.33398438 215.78222656 C173.07826632 208.39164157 188.40105185 205.60232024 203.89257812 206.16113281 C204.15941406 205.39414062 204.42625 204.62714844 204.70117188 203.83691406 C206.26711421 200.31996161 207.79515181 199.03983657 211.05273438 197.09863281 C217.39765233 195.00402441 224.32183888 195.90446331 230.89257812 196.16113281 C230.89257812 188.57113281 230.89257812 180.98113281 230.89257812 173.16113281 C227.23164063 173.20753906 223.57070312 173.25394531 219.79882812 173.30175781 C216.2376443 173.33298809 212.67647596 173.35725624 209.11523438 173.38085938 C206.64771654 173.40092576 204.18024598 173.42818526 201.71289062 173.46289062 C198.15808419 173.51162587 194.60390868 173.5341522 191.04882812 173.55175781 C189.95268188 173.57240295 188.85653564 173.5930481 187.72717285 173.61431885 C180.03872888 173.61655135 174.93169995 172.26763349 168.83496094 167.57861328 C163.58314328 161.6707489 160.66407415 154.76713964 157.6131897 147.57424927 C156.2665826 144.39976223 154.88729224 141.23977264 153.51069641 138.07820129 C152.77712623 136.39224697 152.0452926 134.7055361 151.31510925 133.01811218 C147.45329101 124.10248777 143.44536998 115.25459427 139.42544556 106.40939331 C137.40543698 101.9637984 135.39141102 97.51549499 133.37695312 93.06738281 C132.99054153 92.21446152 132.60412994 91.36154022 132.20600891 90.48277283 C128.77321091 82.90346304 125.35874337 75.31606361 121.95507812 67.72363281 C121.4464624 66.59151367 120.93784668 65.45939453 120.41381836 64.29296875 C118.04413444 59.0086081 115.69258564 53.7173625 113.38407898 48.40602112 C112.2804724 45.86774787 111.17099037 43.33205894 110.06149292 40.7963562 C109.28771175 39.01985696 108.52372568 37.23910143 107.76000977 35.45825195 C107.2958667 34.39727295 106.83172363 33.33629395 106.35351562 32.24316406 C105.9492334 31.30706299 105.54495117 30.37096191 105.12841797 29.40649414 C103.95824417 26.87162988 103.95824417 26.87162988 100.89257812 25.16113281 C98.76553502 24.88671909 98.76553502 24.88671909 96.44335938 24.96582031 C95.17202148 24.97548828 95.17202148 24.97548828 93.875 24.98535156 C92.55338867 25.01048828 92.55338867 25.01048828 91.20507812 25.03613281 C89.86606445 25.04966797 89.86606445 25.04966797 88.5 25.06347656 C86.29725499 25.08703533 84.09505224 25.11992953 81.89257812 25.16113281 C81.62445313 25.94488281 81.35632813 26.72863281 81.08007812 27.53613281 C79.89257812 30.16113281 79.89257812 30.16113281 76.89257812 32.16113281 C74.05538503 32.36624295 71.31554465 32.45482826 68.47729492 32.45166016 C67.61842682 32.45837738 66.75955872 32.4650946 65.87466431 32.47201538 C63.03031658 32.49104038 60.18620431 32.49492205 57.34179688 32.49707031 C55.36505536 32.50349588 53.38831481 32.51022405 51.41157532 32.51724243 C47.26467688 32.529227 43.11786181 32.53292212 38.97094727 32.53173828 C33.66121291 32.5315352 28.35201445 32.55882087 23.04240704 32.5932827 C18.95798801 32.6155403 14.87369809 32.61957614 10.78922462 32.61851883 C8.83203093 32.62087714 6.87483379 32.62971358 4.91769981 32.64518356 C2.17676894 32.66481731 -0.56300489 32.65901552 -3.30395508 32.64697266 C-4.10988602 32.65821167 -4.91581696 32.66945068 -5.74617004 32.68103027 C-10.99563455 32.62252966 -13.92039695 31.59328492 -18.10742188 28.16113281 C-21.5731286 24.42181766 -22.39132136 21.56727563 -22.54492188 16.59863281 C-22.28279205 10.3497961 -20.74582523 7.72830124 -16.23242188 3.41113281 C-11.12125832 -0.26890494 -6.12912898 0.00913193 0 0 Z M155.89257812 237.16113281 C155.23257813 238.15113281 154.57257813 239.14113281 153.89257812 240.16113281 C170.06257813 240.16113281 186.23257813 240.16113281 202.89257812 240.16113281 C202.89257812 234.22113281 202.89257812 228.28113281 202.89257812 222.16113281 C185.50067359 222.16113281 169.87752665 226.5847022 155.89257812 237.16113281 Z M366.89257812 222.16113281 C366.89257812 228.10113281 366.89257812 234.04113281 366.89257812 240.16113281 C383.39257812 240.16113281 399.89257812 240.16113281 416.89257812 240.16113281 C404.70608987 227.97464456 388.29780893 222.10851775 371.14257812 222.03613281 C369.74007813 222.07738281 368.33757812 222.11863281 366.89257812 222.16113281 Z M138.89257812 256.16113281 C130.32058344 269.03134199 130.32058344 269.03134199 125.89257812 284.16113281 C151.30257812 284.16113281 176.71257812 284.16113281 202.89257812 284.16113281 C202.89257812 274.92113281 202.89257812 265.68113281 202.89257812 256.16113281 C181.77257812 256.16113281 160.65257812 256.16113281 138.89257812 256.16113281 Z M366.89257812 256.16113281 C366.89257812 265.40113281 366.89257812 274.64113281 366.89257812 284.16113281 C392.63257813 284.16113281 418.37257813 284.16113281 444.89257812 284.16113281 C444.07303405 278.86005727 444.07303405 278.86005727 442.18554688 274.28613281 C441.84587891 273.61066406 441.50621094 272.93519531 441.15625 272.23925781 C440.80111328 271.55347656 440.44597656 270.86769531 440.08007812 270.16113281 C439.56477539 269.13246094 439.56477539 269.13246094 439.0390625 268.08300781 C438.0222434 266.08370873 437.00451896 264.10951801 435.89257812 262.16113281 C435.34082413 261.14280365 434.78907013 260.12447449 434.22059631 259.07528687 C432.18062192 255.91359332 432.18062192 255.91359332 428.94390869 255.43960571 C427.79807312 255.45292938 426.65223755 255.46625305 425.47167969 255.47998047 C423.52010956 255.48066025 423.52010956 255.48066025 421.52911377 255.48135376 C420.11379617 255.51199169 418.69849267 255.54328764 417.28320312 255.57519531 C415.83162184 255.58639056 414.38001784 255.5949292 412.92840576 255.60092163 C409.11375982 255.62379529 405.30049184 255.68270224 401.48638916 255.74914551 C397.5920272 255.81060181 393.69744182 255.83794356 389.80273438 255.86816406 C382.16531564 255.93245067 374.52931575 256.03795963 366.89257812 256.16113281 Z " fill="#A3B9E0" transform="translate(22.107421875,97.8388671875)"/>
<path d="M0 0 C0.80224503 -0.0049649 1.60449005 -0.00992981 2.43104553 -0.01504517 C5.07448189 -0.02960399 7.71785833 -0.03645677 10.36132812 -0.04199219 C12.20308432 -0.04774694 14.0448405 -0.05350463 15.88659668 -0.05926514 C19.74324827 -0.06975593 23.59987913 -0.07561178 27.45654297 -0.07910156 C32.39628668 -0.08459525 37.33575601 -0.10864999 42.27541351 -0.13707352 C46.07754317 -0.1556984 49.87960653 -0.16090532 53.68177795 -0.16243744 C55.50303148 -0.16546268 57.32428388 -0.17348687 59.14549255 -0.18662262 C61.69226026 -0.20368697 64.23835449 -0.20180255 66.78515625 -0.1953125 C67.91057579 -0.20913467 67.91057579 -0.20913467 69.05873108 -0.22323608 C73.49230974 -0.18786289 76.40428549 0.35268747 79.89257812 3.16113281 C80.70507812 5.84863281 80.70507812 5.84863281 80.89257812 8.16113281 C81.81369385 8.12971191 81.81369385 8.12971191 82.75341797 8.09765625 C85.5912983 8.01345248 88.42891465 7.96214859 91.26757812 7.91113281 C92.23308594 7.87761719 93.19859375 7.84410156 94.19335938 7.80957031 C101.43211097 7.71240586 108.93601081 8.31854085 114.38473511 13.61030579 C118.01733827 17.63352096 120.46079064 21.73490893 122.63476562 26.67285156 C123.12227295 27.74188721 123.12227295 27.74188721 123.61962891 28.83251953 C124.68030984 31.16626892 125.7240371 33.50717539 126.76757812 35.84863281 C127.51812635 37.50961046 128.2696084 39.17016642 129.02197266 40.83032227 C131.3292755 45.93300064 133.61322434 51.04592076 135.89257812 56.16113281 C136.57355747 57.68717905 137.25454668 59.21322088 137.93554688 60.73925781 C140.5363716 66.57198293 143.13072536 72.40754787 145.71459961 78.24780273 C151.78618259 91.96689604 157.96539079 105.63647771 164.15966797 119.30053711 C164.53498657 120.12861374 164.91030518 120.95669037 165.29699707 121.80986023 C166.03975129 123.44778105 166.78314921 125.08541015 167.52722168 126.72273254 C169.50040655 131.06886858 171.45567069 135.42217692 173.38916016 139.78613281 C174.0030233 141.16647705 174.0030233 141.16647705 174.62928772 142.57470703 C175.41604178 144.3454642 176.19911733 146.1178616 176.97801208 147.89208984 C177.33081741 148.68470215 177.68362274 149.47731445 178.04711914 150.29394531 C178.5104641 151.34412842 178.5104641 151.34412842 178.98316956 152.41552734 C179.87841603 154.34723955 179.87841603 154.34723955 181.89257812 156.16113281 C184.07382403 156.49165736 184.07382403 156.49165736 186.61767578 156.47998047 C187.59854156 156.49985016 188.57940735 156.51971985 189.58999634 156.54019165 C190.65148895 156.55174286 191.71298157 156.56329407 192.80664062 156.57519531 C193.89141693 156.59456146 194.97619324 156.61392761 196.09384155 156.63388062 C199.56833971 156.69379707 203.04287079 156.7401102 206.51757812 156.78613281 C208.8691553 156.82430147 211.22071834 156.86335253 213.57226562 156.90332031 C219.34557782 156.9995084 225.11897479 157.08452034 230.89257812 157.16113281 C230.8881369 156.07198578 230.88369568 154.98283875 230.87911987 153.86068726 C230.83855609 143.59070012 230.80858519 133.32072927 230.78895378 123.05068016 C230.77852177 117.7708947 230.76437311 112.49117398 230.74169922 107.21142578 C230.71995021 102.11508168 230.70800511 97.01879981 230.70282364 91.92241287 C230.69913159 89.97918341 230.69192196 88.0359573 230.68111801 86.09275436 C230.66657583 83.36856507 230.66460134 80.6446321 230.66552734 77.92041016 C230.65833679 77.11911682 230.65114624 76.31782349 230.64373779 75.49224854 C230.66571855 69.50647862 231.27504679 64.98085557 235.39257812 60.34863281 C239.58579006 56.67957237 242.92806745 57.00159535 248.28613281 56.98413086 C249.15460846 56.97755966 250.02308411 56.97098846 250.9178772 56.96421814 C253.80007 56.94446252 256.68221062 56.93281694 259.56445312 56.92285156 C261.03986446 56.91673827 261.03986446 56.91673827 262.54508209 56.91050148 C267.75205781 56.88963016 272.9590071 56.87533356 278.16601562 56.8659668 C283.54412578 56.85490574 288.92182181 56.82051226 294.29978561 56.7807951 C298.43480192 56.75464522 302.56971937 56.74627635 306.7048111 56.74268532 C308.68713424 56.73781442 310.66945282 56.72618616 312.65169525 56.70764732 C315.42861176 56.68329275 318.20445464 56.68421428 320.98144531 56.69116211 C322.2067244 56.67194702 322.2067244 56.67194702 323.45675659 56.65234375 C328.72303111 56.70029357 331.72428803 57.65820881 335.89257812 61.16113281 C338.81464698 65.5442361 339.01795516 69.40494558 339.01283264 74.58381653 C339.01489464 76.19702286 339.01489464 76.19702286 339.01699829 77.84281921 C339.01340302 79.01238663 339.00980774 80.18195404 339.00610352 81.38696289 C339.00624954 82.62639648 339.00639557 83.86583008 339.00654602 85.14282227 C339.0059695 88.53293793 339.00096059 91.9229924 338.99397206 95.31309724 C338.98771293 98.85917623 338.9871327 102.40525606 338.98594666 105.95133972 C338.98284089 112.66250685 338.97463767 119.37365765 338.96459717 126.08481759 C338.9513205 135.15632822 338.94593003 144.22784333 338.94009495 153.29936123 C338.93069728 167.58663065 338.91077331 181.87386562 338.89257812 196.16113281 C303.25257813 196.16113281 267.61257813 196.16113281 230.89257812 196.16113281 C230.89257812 188.57113281 230.89257812 180.98113281 230.89257812 173.16113281 C227.23164063 173.20753906 223.57070312 173.25394531 219.79882812 173.30175781 C216.2376443 173.33298809 212.67647596 173.35725624 209.11523438 173.38085938 C206.64771654 173.40092576 204.18024598 173.42818526 201.71289062 173.46289062 C198.15808419 173.51162587 194.60390868 173.5341522 191.04882812 173.55175781 C189.95268188 173.57240295 188.85653564 173.5930481 187.72717285 173.61431885 C180.03872888 173.61655135 174.93169995 172.26763349 168.83496094 167.57861328 C163.58314328 161.6707489 160.66407415 154.76713964 157.6131897 147.57424927 C156.2665826 144.39976223 154.88729224 141.23977264 153.51069641 138.07820129 C152.77712623 136.39224697 152.0452926 134.7055361 151.31510925 133.01811218 C147.45329101 124.10248777 143.44536998 115.25459427 139.42544556 106.40939331 C137.40543698 101.9637984 135.39141102 97.51549499 133.37695312 93.06738281 C132.99054153 92.21446152 132.60412994 91.36154022 132.20600891 90.48277283 C128.77321091 82.90346304 125.35874337 75.31606361 121.95507812 67.72363281 C121.4464624 66.59151367 120.93784668 65.45939453 120.41381836 64.29296875 C118.04413444 59.0086081 115.69258564 53.7173625 113.38407898 48.40602112 C112.2804724 45.86774787 111.17099037 43.33205894 110.06149292 40.7963562 C109.28771175 39.01985696 108.52372568 37.23910143 107.76000977 35.45825195 C107.2958667 34.39727295 106.83172363 33.33629395 106.35351562 32.24316406 C105.9492334 31.30706299 105.54495117 30.37096191 105.12841797 29.40649414 C103.95824417 26.87162988 103.95824417 26.87162988 100.89257812 25.16113281 C98.76553502 24.88671909 98.76553502 24.88671909 96.44335938 24.96582031 C95.17202148 24.97548828 95.17202148 24.97548828 93.875 24.98535156 C92.55338867 25.01048828 92.55338867 25.01048828 91.20507812 25.03613281 C89.86606445 25.04966797 89.86606445 25.04966797 88.5 25.06347656 C86.29725499 25.08703533 84.09505224 25.11992953 81.89257812 25.16113281 C81.62445313 25.94488281 81.35632813 26.72863281 81.08007812 27.53613281 C79.89257812 30.16113281 79.89257812 30.16113281 76.89257812 32.16113281 C74.05538503 32.36624295 71.31554465 32.45482826 68.47729492 32.45166016 C67.61842682 32.45837738 66.75955872 32.4650946 65.87466431 32.47201538 C63.03031658 32.49104038 60.18620431 32.49492205 57.34179688 32.49707031 C55.36505536 32.50349588 53.38831481 32.51022405 51.41157532 32.51724243 C47.26467688 32.529227 43.11786181 32.53292212 38.97094727 32.53173828 C33.66121291 32.5315352 28.35201445 32.55882087 23.04240704 32.5932827 C18.95798801 32.6155403 14.87369809 32.61957614 10.78922462 32.61851883 C8.83203093 32.62087714 6.87483379 32.62971358 4.91769981 32.64518356 C2.17676894 32.66481731 -0.56300489 32.65901552 -3.30395508 32.64697266 C-4.10988602 32.65821167 -4.91581696 32.66945068 -5.74617004 32.68103027 C-10.99563455 32.62252966 -13.92039695 31.59328492 -18.10742188 28.16113281 C-21.5731286 24.42181766 -22.39132136 21.56727563 -22.54492188 16.59863281 C-22.28279205 10.3497961 -20.74582523 7.72830124 -16.23242188 3.41113281 C-11.12125832 -0.26890494 -6.12912898 0.00913193 0 0 Z " fill="#80B3F9" transform="translate(22.107421875,97.8388671875)"/>
<path d="M0 0 C0.96236655 -0.00525911 0.96236655 -0.00525911 1.94417486 -0.01062447 C4.09671057 -0.01993765 6.24897568 -0.01501547 8.40152264 -0.01015663 C9.95931315 -0.01389294 11.51710179 -0.01849438 13.07488745 -0.02388728 C17.35796217 -0.03613513 21.64095888 -0.03585471 25.92404711 -0.03349853 C30.54243625 -0.03309081 35.16080022 -0.04412518 39.77917767 -0.05361366 C48.82837643 -0.07023441 57.87754915 -0.07572369 66.9267619 -0.07683842 C74.28165101 -0.07778838 81.6365315 -0.08189608 88.99141788 -0.08823967 C109.83894194 -0.10585499 130.6864454 -0.11507808 151.53397695 -0.11357872 C153.22021024 -0.11345885 153.22021024 -0.11345885 154.94050884 -0.11333656 C156.62879843 -0.11321392 156.62879843 -0.11321392 158.35119488 -0.1130888 C176.59404562 -0.11227581 194.83681381 -0.13141597 213.07964066 -0.1596133 C231.80640898 -0.18833048 250.53313703 -0.20215423 269.25992793 -0.20042574 C279.7755435 -0.19976144 290.29107253 -0.2052714 300.80666828 -0.22678185 C309.75964306 -0.24497829 318.71249207 -0.24935361 327.66547731 -0.235763 C332.23356728 -0.2292256 336.80141587 -0.22914396 341.36948299 -0.2464695 C345.55242273 -0.2621712 349.73492911 -0.25936645 353.91785809 -0.24190123 C355.42995594 -0.23882492 356.9420859 -0.24248752 358.45414589 -0.25362138 C367.40408656 -0.31515124 374.48752704 -0.15854902 381.52717876 6.03851891 C381.97319439 6.60570641 382.41921001 7.17289391 382.87874126 7.75726891 C383.57096783 8.60805016 383.57096783 8.60805016 384.27717876 9.47601891 C387.27867151 13.83487462 387.822399 16.96161927 387.87874126 22.31976891 C387.90710064 23.54824547 387.93546001 24.77672203 387.96467876 26.04242516 C387.50374126 29.25726891 387.50374126 29.25726891 385.89738274 30.93460143 C382.70537751 32.69842511 380.38808134 32.63333473 376.74454021 32.63479233 C375.7213254 32.64133281 375.7213254 32.64133281 374.67743957 32.64800543 C372.38081472 32.65899514 370.08478604 32.64852279 367.78816509 32.63821983 C366.12939076 32.64167494 364.47061872 32.64643851 362.8118515 32.65240157 C358.24511653 32.6649615 353.67856887 32.65871856 349.1118331 32.64944291 C344.19015908 32.64267314 339.26851794 32.65312333 334.3468504 32.66138268 C324.70193079 32.67474439 315.0570811 32.67183142 305.41215873 32.66314475 C297.57570651 32.65637819 289.73927393 32.65544703 281.90281963 32.6587162 C280.78882127 32.6591759 279.6748229 32.6596356 278.52706701 32.66010923 C276.26422206 32.66106838 274.00137712 32.66204101 271.73853219 32.663027 C250.50424036 32.67158804 229.26998734 32.66173557 208.03570187 32.6456259 C189.8033492 32.63222208 171.57105383 32.63454997 153.3387022 32.64838219 C132.18201249 32.6644254 111.02535682 32.670764 89.86866188 32.6615454 C87.61399556 32.66058972 85.35932923 32.65964661 83.1046629 32.6587162 C81.99523337 32.65825338 80.88580384 32.65779055 79.74275523 32.6573137 C71.91288234 32.65472003 64.08303099 32.65910291 56.25316143 32.66615486 C46.71522605 32.67455609 37.17736477 32.67231879 27.63943791 32.65631263 C22.77013237 32.64841133 17.9009505 32.64536988 13.03164577 32.65526009 C8.57815807 32.66416912 4.12490923 32.65933708 -0.32855666 32.64332743 C-1.94356919 32.63996348 -3.55860172 32.64170968 -5.17360151 32.64895479 C-7.36171088 32.65802145 -9.54899222 32.64877864 -11.73705769 32.63479233 C-12.9545511 32.63430527 -14.17204451 32.63381821 -15.42643166 32.6333164 C-18.77288294 32.22338301 -20.15837568 31.65169966 -22.49625874 29.25726891 C-24.41603714 22.40091745 -23.05806084 16.15775853 -19.74625874 10.00726891 C-14.21136704 3.24240128 -8.86380242 0.01093462 0 0 Z " fill="#808B94" transform="translate(124.49625873565674,381.74273109436035)"/>
<path d="M0 0 C0.80224503 -0.0049649 1.60449005 -0.00992981 2.43104553 -0.01504517 C5.07448189 -0.02960399 7.71785833 -0.03645677 10.36132812 -0.04199219 C12.20308432 -0.04774694 14.0448405 -0.05350463 15.88659668 -0.05926514 C19.74324827 -0.06975593 23.59987913 -0.07561178 27.45654297 -0.07910156 C32.39628668 -0.08459525 37.33575601 -0.10864999 42.27541351 -0.13707352 C46.07754317 -0.1556984 49.87960653 -0.16090532 53.68177795 -0.16243744 C55.50303148 -0.16546268 57.32428388 -0.17348687 59.14549255 -0.18662262 C61.69226026 -0.20368697 64.23835449 -0.20180255 66.78515625 -0.1953125 C67.91057579 -0.20913467 67.91057579 -0.20913467 69.05873108 -0.22323608 C73.49230974 -0.18786289 76.40428549 0.35268747 79.89257812 3.16113281 C80.70507812 5.84863281 80.70507812 5.84863281 80.89257812 8.16113281 C81.81369385 8.12971191 81.81369385 8.12971191 82.75341797 8.09765625 C85.5912983 8.01345248 88.42891465 7.96214859 91.26757812 7.91113281 C92.23308594 7.87761719 93.19859375 7.84410156 94.19335938 7.80957031 C101.43211097 7.71240586 108.93601081 8.31854085 114.38473511 13.61030579 C118.01733827 17.63352096 120.46079064 21.73490893 122.63476562 26.67285156 C123.12227295 27.74188721 123.12227295 27.74188721 123.61962891 28.83251953 C124.68030984 31.16626892 125.7240371 33.50717539 126.76757812 35.84863281 C127.51812635 37.50961046 128.2696084 39.17016642 129.02197266 40.83032227 C131.3292755 45.93300064 133.61322434 51.04592076 135.89257812 56.16113281 C136.57355747 57.68717905 137.25454668 59.21322088 137.93554688 60.73925781 C140.5363716 66.57198293 143.13072536 72.40754787 145.71459961 78.24780273 C151.78618259 91.96689604 157.96539079 105.63647771 164.15966797 119.30053711 C164.53498657 120.12861374 164.91030518 120.95669037 165.29699707 121.80986023 C166.03975129 123.44778105 166.78314921 125.08541015 167.52722168 126.72273254 C169.50040655 131.06886858 171.45567069 135.42217692 173.38916016 139.78613281 C174.0030233 141.16647705 174.0030233 141.16647705 174.62928772 142.57470703 C175.41604178 144.3454642 176.19911733 146.1178616 176.97801208 147.89208984 C177.33081741 148.68470215 177.68362274 149.47731445 178.04711914 150.29394531 C178.5104641 151.34412842 178.5104641 151.34412842 178.98316956 152.41552734 C179.87841603 154.34723955 179.87841603 154.34723955 181.89257812 156.16113281 C184.07382403 156.49165736 184.07382403 156.49165736 186.61767578 156.47998047 C187.61226807 156.5000415 188.60686035 156.52010254 189.6315918 156.54077148 C191.20324097 156.55781128 191.20324097 156.55781128 192.80664062 156.57519531 C193.76787842 156.59283936 194.72911621 156.6104834 195.71948242 156.62866211 C199.31867583 156.69184562 202.91815263 156.73795171 206.51757812 156.78613281 C214.56132812 156.90988281 222.60507813 157.03363281 230.89257812 157.16113281 C230.89257812 133.40113281 230.89257812 109.64113281 230.89257812 85.16113281 C236.95632813 85.11988281 243.02007812 85.07863281 249.26757812 85.03613281 C251.18103027 85.0179248 253.09448242 84.9997168 255.06591797 84.98095703 C256.57844766 84.97511715 258.09098049 84.9700204 259.60351562 84.96582031 C260.39218018 84.95558838 261.18084473 84.94535645 261.9934082 84.93481445 C263.96124464 84.9341811 265.92859338 85.03806949 267.89257812 85.16113281 C270.38510648 87.65366117 270.13548277 89.12662262 270.16363525 92.52812195 C270.15756256 93.64873772 270.15756256 93.64873772 270.15136719 94.79199219 C270.15662415 95.97267021 270.15662415 95.97267021 270.1619873 97.17720032 C270.17081055 99.78651677 270.16495344 102.39556346 270.15820312 105.00488281 C270.15954961 106.81327364 270.16149 108.62166412 270.16400146 110.43005371 C270.16695353 114.22309815 270.16265245 118.01604851 270.15332031 121.80908203 C270.14192572 126.67854043 270.14848475 131.54777839 270.16046524 136.4172287 C270.16768163 140.1523404 270.16539694 143.88739956 270.16020966 147.62251282 C270.15887254 149.41831997 270.16052302 151.21413184 270.16516876 153.00993347 C270.17023039 155.51684255 270.16252906 158.0233913 270.15136719 160.53027344 C270.15541565 161.27735062 270.15946411 162.0244278 270.16363525 162.79414368 C270.12110682 167.93260412 270.12110682 167.93260412 267.89257812 170.16113281 C265.16772084 170.33631028 262.5459845 170.39262414 259.82226562 170.35644531 C259.0260379 170.35361542 258.22981018 170.35078552 257.40945435 170.34786987 C254.8620105 170.33665921 252.31491602 170.31155343 249.76757812 170.28613281 C248.04232278 170.27610414 246.31706193 170.26697809 244.59179688 170.25878906 C240.35858899 170.23671703 236.12564282 170.20218148 231.89257812 170.16113281 C231.89257812 171.15113281 231.89257812 172.14113281 231.89257812 173.16113281 C224.4911681 173.26286644 217.0899396 173.33273851 209.68798828 173.38085938 C207.17196921 173.40092797 204.65599651 173.42818911 202.14013672 173.46289062 C198.51583385 173.51161593 194.89214971 173.53415003 191.26757812 173.55175781 C189.5905481 173.58272552 189.5905481 173.58272552 187.87963867 173.61431885 C180.12168977 173.61652901 174.98687506 172.31006883 168.83496094 167.57861328 C163.58314328 161.6707489 160.66407415 154.76713964 157.6131897 147.57424927 C156.2665826 144.39976223 154.88729224 141.23977264 153.51069641 138.07820129 C152.77712623 136.39224697 152.0452926 134.7055361 151.31510925 133.01811218 C147.45329101 124.10248777 143.44536998 115.25459427 139.42544556 106.40939331 C137.40543698 101.9637984 135.39141102 97.51549499 133.37695312 93.06738281 C132.99054153 92.21446152 132.60412994 91.36154022 132.20600891 90.48277283 C128.77321091 82.90346304 125.35874337 75.31606361 121.95507812 67.72363281 C121.4464624 66.59151367 120.93784668 65.45939453 120.41381836 64.29296875 C118.04413444 59.0086081 115.69258564 53.7173625 113.38407898 48.40602112 C112.2804724 45.86774787 111.17099037 43.33205894 110.06149292 40.7963562 C109.28771175 39.01985696 108.52372568 37.23910143 107.76000977 35.45825195 C107.2958667 34.39727295 106.83172363 33.33629395 106.35351562 32.24316406 C105.9492334 31.30706299 105.54495117 30.37096191 105.12841797 29.40649414 C103.95824417 26.87162988 103.95824417 26.87162988 100.89257812 25.16113281 C98.76553502 24.88671909 98.76553502 24.88671909 96.44335938 24.96582031 C95.17202148 24.97548828 95.17202148 24.97548828 93.875 24.98535156 C92.55338867 25.01048828 92.55338867 25.01048828 91.20507812 25.03613281 C89.86606445 25.04966797 89.86606445 25.04966797 88.5 25.06347656 C86.29725499 25.08703533 84.09505224 25.11992953 81.89257812 25.16113281 C81.62445313 25.94488281 81.35632813 26.72863281 81.08007812 27.53613281 C79.89257812 30.16113281 79.89257812 30.16113281 76.89257812 32.16113281 C74.05538503 32.36624295 71.31554465 32.45482826 68.47729492 32.45166016 C67.61842682 32.45837738 66.75955872 32.4650946 65.87466431 32.47201538 C63.03031658 32.49104038 60.18620431 32.49492205 57.34179688 32.49707031 C55.36505536 32.50349588 53.38831481 32.51022405 51.41157532 32.51724243 C47.26467688 32.529227 43.11786181 32.53292212 38.97094727 32.53173828 C33.66121291 32.5315352 28.35201445 32.55882087 23.04240704 32.5932827 C18.95798801 32.6155403 14.87369809 32.61957614 10.78922462 32.61851883 C8.83203093 32.62087714 6.87483379 32.62971358 4.91769981 32.64518356 C2.17676894 32.66481731 -0.56300489 32.65901552 -3.30395508 32.64697266 C-4.10988602 32.65821167 -4.91581696 32.66945068 -5.74617004 32.68103027 C-10.99563455 32.62252966 -13.92039695 31.59328492 -18.10742188 28.16113281 C-21.5731286 24.42181766 -22.39132136 21.56727563 -22.54492188 16.59863281 C-22.28279205 10.3497961 -20.74582523 7.72830124 -16.23242188 3.41113281 C-11.12125832 -0.26890494 -6.12912898 0.00913193 0 0 Z " fill="#B9CBEA" transform="translate(22.107421875,97.8388671875)"/>
<path d="M0 0 C1.3872085 -0.00678528 2.77440797 -0.01569352 4.16159058 -0.02655029 C7.90969529 -0.0492428 11.65710784 -0.04054964 15.40522385 -0.02465487 C19.33860813 -0.01194329 23.2719355 -0.02375051 27.20532227 -0.03158569 C33.8091896 -0.04066705 40.41277681 -0.02873437 47.01660156 -0.00488281 C54.63762519 0.02232581 62.25797988 0.01351056 69.87898731 -0.01401484 C76.43723915 -0.03674834 82.99529031 -0.03988538 89.55356884 -0.02682149 C93.46397545 -0.01905015 97.37406824 -0.01792102 101.28445435 -0.03450394 C104.9619775 -0.04901166 108.63864327 -0.03881405 112.31607437 -0.01003265 C114.29923595 -0.00033237 116.28247055 -0.01506822 118.26559448 -0.03067017 C124.54028785 0.0434081 129.29576253 0.44533273 134.62635803 3.89237404 C144.23630662 14.72028038 139.18359375 34.42912521 139.18359375 45.64697266 C85.06359375 45.64697266 30.94359375 45.64697266 -24.81640625 45.64697266 C-24.81640625 9.02719043 -24.81640625 9.02719043 -20.25917053 3.89237404 C-13.8209661 -0.27090502 -7.48525208 -0.05888916 0 0 Z " fill="#FDCF66" transform="translate(249.81640625,293.35302734375)"/>
<path d="M0 0 C54.12 0 108.24 0 164 0 C164 9.24 164 18.48 164 28 C109.88 28 55.76 28 0 28 C0 18.76 0 9.52 0 0 Z " fill="#FFCF63" transform="translate(225,354)"/>
<path d="M0 0 C5.23273331 -0.04935824 10.46533176 -0.08569949 15.69824219 -0.10986328 C17.47919067 -0.11993431 19.26012257 -0.13359185 21.04101562 -0.15087891 C23.59769783 -0.17507913 26.15416185 -0.18647184 28.7109375 -0.1953125 C29.90944839 -0.21079636 29.90944839 -0.21079636 31.13217163 -0.22659302 C33.0895722 -0.22699226 35.04643077 -0.12241069 37 0 C39.49252836 2.49252836 39.24290464 3.96548981 39.27105713 7.36698914 C39.26700867 8.11406631 39.26296021 8.86114349 39.25878906 9.63085938 C39.2622937 10.41797806 39.26579834 11.20509674 39.26940918 12.0160675 C39.27823243 14.62538396 39.27237532 17.23443065 39.265625 19.84375 C39.26697148 21.65214083 39.26891187 23.46053131 39.27142334 25.2689209 C39.2743754 29.06196534 39.27007433 32.8549157 39.26074219 36.64794922 C39.2493476 41.51740762 39.25590663 46.38664558 39.26788712 51.25609589 C39.2751035 54.99120758 39.27281881 58.72626675 39.26763153 62.46138 C39.26629442 64.25718715 39.26794489 66.05299902 39.27259064 67.84880066 C39.27765226 70.35570974 39.26995093 72.86225848 39.25878906 75.36914062 C39.26283752 76.1162178 39.26688599 76.86329498 39.27105713 77.63301086 C39.22852869 82.77147131 39.22852869 82.77147131 37 85 C34.27514272 85.17517747 31.65340638 85.23149133 28.9296875 85.1953125 C28.13345978 85.1924826 27.33723206 85.18965271 26.51687622 85.18673706 C23.96943237 85.1755264 21.42233789 85.15042062 18.875 85.125 C17.14974465 85.11497133 15.42448381 85.10584528 13.69921875 85.09765625 C9.46601086 85.07558422 5.2330647 85.04104867 1 85 C0.03906627 74.97900903 -0.13278105 65.03410222 -0.09765625 54.98046875 C-0.09578597 53.38479151 -0.09436496 51.78911369 -0.09336853 50.19343567 C-0.08959134 46.03923901 -0.07980338 41.88507857 -0.06866455 37.730896 C-0.05834593 33.4735971 -0.05384876 29.21629223 -0.04882812 24.95898438 C-0.03817568 16.63930649 -0.02115863 8.31965778 0 0 Z " fill="#5E6B76" transform="translate(253,183)"/>
<path d="M0 0 C0.80224503 -0.0049649 1.60449005 -0.00992981 2.43104553 -0.01504517 C5.07448189 -0.02960399 7.71785833 -0.03645677 10.36132812 -0.04199219 C12.20308432 -0.04774694 14.0448405 -0.05350463 15.88659668 -0.05926514 C19.74324827 -0.06975593 23.59987913 -0.07561178 27.45654297 -0.07910156 C32.39628668 -0.08459525 37.33575601 -0.10864999 42.27541351 -0.13707352 C46.07754317 -0.1556984 49.87960653 -0.16090532 53.68177795 -0.16243744 C55.50303148 -0.16546268 57.32428388 -0.17348687 59.14549255 -0.18662262 C61.69226026 -0.20368697 64.23835449 -0.20180255 66.78515625 -0.1953125 C67.91057579 -0.20913467 67.91057579 -0.20913467 69.05873108 -0.22323608 C73.93616925 -0.18432157 77.3810097 0.64956439 80.89257812 4.16113281 C81.30354374 7.56228596 81.40972924 10.99052723 81.58007812 14.41113281 C81.64001953 15.36632812 81.69996094 16.32152344 81.76171875 17.30566406 C82.22290387 26.39037918 82.22290387 26.39037918 79.89257812 30.16113281 C76.0586167 32.71710709 72.92253608 32.45662201 68.47729492 32.45166016 C67.61842682 32.45837738 66.75955872 32.4650946 65.87466431 32.47201538 C63.03031658 32.49104038 60.18620431 32.49492205 57.34179688 32.49707031 C55.36505536 32.50349588 53.38831481 32.51022405 51.41157532 32.51724243 C47.26467688 32.529227 43.11786181 32.53292212 38.97094727 32.53173828 C33.66121291 32.5315352 28.35201445 32.55882087 23.04240704 32.5932827 C18.95798801 32.6155403 14.87369809 32.61957614 10.78922462 32.61851883 C8.83203093 32.62087714 6.87483379 32.62971358 4.91769981 32.64518356 C2.17676894 32.66481731 -0.56300489 32.65901552 -3.30395508 32.64697266 C-4.10988602 32.65821167 -4.91581696 32.66945068 -5.74617004 32.68103027 C-10.99563455 32.62252966 -13.92039695 31.59328492 -18.10742188 28.16113281 C-21.5731286 24.42181766 -22.39132136 21.56727563 -22.54492188 16.59863281 C-22.28279205 10.3497961 -20.74582523 7.72830124 -16.23242188 3.41113281 C-11.12125832 -0.26890494 -6.12912898 0.00913193 0 0 Z " fill="#C17C4F" transform="translate(22.107421875,97.8388671875)"/>
<path d="M0 0 C4.04067641 5.0928193 4.77970051 10.10517058 4.703125 16.4609375 C4.69888016 17.1613063 4.69463531 17.86167511 4.69026184 18.58326721 C4.67362781 20.79420375 4.63600805 23.00418832 4.59765625 25.21484375 C4.58258951 26.7245961 4.56890461 28.23436291 4.55664062 29.74414062 C4.52634091 33.42252618 4.46759893 37.09888455 4.41015625 40.77734375 C-5.81984375 40.77734375 -16.04984375 40.77734375 -26.58984375 40.77734375 C-26.615625 38.54855469 -26.64140625 36.31976563 -26.66796875 34.0234375 C-26.70647093 31.84549773 -26.75160429 29.66778822 -26.79736328 27.48999023 C-26.82544748 25.98587182 -26.84672407 24.48160927 -26.86083984 22.97729492 C-26.88244604 20.80443191 -26.92917807 18.633279 -26.98046875 16.4609375 C-27.00141602 15.15697021 -27.02236328 13.85300293 -27.04394531 12.50952148 C-27.86917026 6.86765488 -30.01724062 3.17124198 -34.33984375 -0.66015625 C-35.08234375 -1.17578125 -35.82484375 -1.69140625 -36.58984375 -2.22265625 C-7.68582566 -5.39643078 -7.68582566 -5.39643078 0 0 Z " fill="#FEC250" transform="translate(384.58984375,297.22265625)"/>
<path d="M0 0 C26.36450315 -1.00118366 48.08184774 8.09953652 67.54589844 25.59423828 C69.94163066 27.91032729 71.98197042 30.3452858 74 33 C74 33.66 74 34.32 74 35 C61.59785335 36.02896834 52.89176176 36.50165016 42.95703125 28.390625 C31.1434467 18.83988029 15.64568375 17.14419404 1 16 C0.67 10.72 0.34 5.44 0 0 Z " fill="#B8CBEA" transform="translate(388,304)"/>
<path d="M0 0 C-0.33 5.28 -0.66 10.56 -1 16 C-3.04767578 16.23783203 -3.04767578 16.23783203 -5.13671875 16.48046875 C-19.94311345 18.31722509 -34.83945832 21.02522292 -46.46020508 31.28979492 C-51.71102586 35.68820468 -56.28098431 35.60824403 -62.9375 35.3125 C-63.90751953 35.28994141 -64.87753906 35.26738281 -65.87695312 35.24414062 C-68.25293654 35.18561887 -70.62563198 35.10370509 -73 35 C-68.2335059 24.63981513 -56.73575692 16.29847041 -47 11 C-46.19175781 10.54238281 -45.38351563 10.08476562 -44.55078125 9.61328125 C-30.71791524 2.19565745 -15.55583028 -0.41482214 0 0 Z " fill="#B9CBEA" transform="translate(226,304)"/>
<path d="M0 0 C4.69557647 -0.09954745 9.39052663 -0.17178467 14.08691406 -0.21972656 C15.68142408 -0.23973053 17.27586178 -0.26694301 18.87011719 -0.30175781 C36.6828303 -0.68075171 36.6828303 -0.68075171 44.0234375 5.78125 C44.46945312 6.3484375 44.91546875 6.915625 45.375 7.5 C45.83648437 8.0671875 46.29796875 8.634375 46.7734375 9.21875 C49.77493025 13.57760571 50.31865773 16.70435037 50.375 22.0625 C50.40335938 23.29097656 50.43171875 24.51945312 50.4609375 25.78515625 C50 29 50 29 48.43310547 30.68261719 C45.0558924 32.51117847 42.43702302 32.33853599 38.609375 32.29296875 C37.90476135 32.28872391 37.20014771 32.28447906 36.47418213 32.28010559 C34.23239288 32.26336538 31.99151569 32.22572404 29.75 32.1875 C28.22657552 32.17244704 26.70313689 32.1587597 25.1796875 32.14648438 C21.45283059 32.11347791 17.72650437 32.06172854 14 32 C15.32 31.34 16.64 30.68 18 30 C18.33538949 22.54690011 18.15989399 16.80592551 15 10 C14.690625 9.21625 14.38125 8.4325 14.0625 7.625 C11.93548091 4.37191198 7.80457068 3.52500816 4.25 2.375 C3.05117188 1.98441406 3.05117188 1.98441406 1.828125 1.5859375 C1.22484375 1.39257812 0.6215625 1.19921875 0 1 C0 0.67 0 0.34 0 0 Z " fill="#5F6C76" transform="translate(462,382)"/>
<path d="M0 0 C4.58978038 -0.0992963 9.17892788 -0.17166748 13.76953125 -0.21972656 C15.32921244 -0.23977222 16.88881913 -0.26701657 18.44824219 -0.30175781 C20.69745314 -0.35059126 22.9456659 -0.37303815 25.1953125 -0.390625 C26.23161301 -0.42159271 26.23161301 -0.42159271 27.28884888 -0.45318604 C32.32788477 -0.45549191 35.13352906 0.82864909 39 4 C43.87798837 11.31698256 42 19.14076429 42 28 C31.44 28 20.88 28 10 28 C9.75 18.875 9.75 18.875 9.70214844 16.03466797 C9.48272727 10.61265536 8.66554756 7.25850378 5 3 C2.39562767 1.58809436 2.39562767 1.58809436 0 1 C0 0.67 0 0.34 0 0 Z " fill="#61A2F9" transform="translate(319,155)"/>
<path d="M0 0 C10.23 0 20.46 0 31 0 C31 9.24 31 18.48 31 28 C20.77 28 10.54 28 0 28 C0 18.76 0 9.52 0 0 Z " fill="#FFC250" transform="translate(358,354)"/>
<path d="M0 0 C10.56 0 21.12 0 32 0 C32 8.25 32 16.5 32 25 C21.44 25 10.88 25 0 25 C0 16.75 0 8.5 0 0 Z " fill="#61A2F9" transform="translate(329,269)"/>
<path d="M0 0 C10.56 0 21.12 0 32 0 C32 6.27 32 12.54 32 19 C21.44 19 10.88 19 0 19 C0 12.73 0 6.46 0 0 Z " fill="#61A2F9" transform="translate(329,234)"/>
<path d="M0 0 C10.56 0 21.12 0 32 0 C32 6.27 32 12.54 32 19 C21.44 19 10.88 19 0 19 C0 12.73 0 6.46 0 0 Z " fill="#61A2F9" transform="translate(329,199)"/>
<path d="M0 0 C0.81559387 0.00565979 1.63118774 0.01131958 2.47149658 0.01715088 C5.07014272 0.03949773 7.66739742 0.08968878 10.265625 0.140625 C12.02992797 0.16069229 13.7942526 0.17894266 15.55859375 0.1953125 C19.87813828 0.2393567 24.19664593 0.30837078 28.515625 0.390625 C28.515625 5.340625 28.515625 10.290625 28.515625 15.390625 C23.31955514 15.48958326 18.12403502 15.56213493 12.92724609 15.61035156 C11.15989628 15.6304535 9.39261287 15.65773972 7.62548828 15.69238281 C5.08349215 15.74096509 2.54237604 15.76360726 0 15.78125 C-1.18302704 15.81221771 -1.18302704 15.81221771 -2.38995361 15.84381104 C-5.95183973 15.84526435 -8.05683061 15.69954629 -10.98339844 13.58496094 C-13.18387026 10.36800572 -13.0277481 8.19423668 -12.484375 4.390625 C-9.20892922 -0.39787641 -5.34602275 -0.13994109 0 0 Z " fill="#FCCF66" transform="translate(332.484375,252.609375)"/>
<path d="M0 0 C0.81559387 0.00565979 1.63118774 0.01131958 2.47149658 0.01715088 C5.07014272 0.03949773 7.66739742 0.08968878 10.265625 0.140625 C12.02992797 0.16069229 13.7942526 0.17894266 15.55859375 0.1953125 C19.87813828 0.2393567 24.19664593 0.30837078 28.515625 0.390625 C28.515625 5.340625 28.515625 10.290625 28.515625 15.390625 C23.31955514 15.48958326 18.12403502 15.56213493 12.92724609 15.61035156 C11.15989628 15.6304535 9.39261287 15.65773972 7.62548828 15.69238281 C5.08349215 15.74096509 2.54237604 15.76360726 0 15.78125 C-1.18302704 15.81221771 -1.18302704 15.81221771 -2.38995361 15.84381104 C-5.95183973 15.84526435 -8.05683061 15.69954629 -10.98339844 13.58496094 C-13.18387026 10.36800572 -13.0277481 8.19423668 -12.484375 4.390625 C-9.20892922 -0.39787641 -5.34602275 -0.13994109 0 0 Z " fill="#FCCF66" transform="translate(332.484375,217.609375)"/>
<path d="M0 0 C0.81559387 0.00565979 1.63118774 0.01131958 2.47149658 0.01715088 C5.07014272 0.03949773 7.66739742 0.08968878 10.265625 0.140625 C12.02992797 0.16069229 13.7942526 0.17894266 15.55859375 0.1953125 C19.87813828 0.2393567 24.19664593 0.30837078 28.515625 0.390625 C28.515625 5.340625 28.515625 10.290625 28.515625 15.390625 C23.31955514 15.48958326 18.12403502 15.56213493 12.92724609 15.61035156 C11.15989628 15.6304535 9.39261287 15.65773972 7.62548828 15.69238281 C5.08349215 15.74096509 2.54237604 15.76360726 0 15.78125 C-1.18302704 15.81221771 -1.18302704 15.81221771 -2.38995361 15.84381104 C-5.95183973 15.84526435 -8.05683061 15.69954629 -10.98339844 13.58496094 C-13.18387026 10.36800572 -13.0277481 8.19423668 -12.484375 4.390625 C-9.20892922 -0.39787641 -5.34602275 -0.13994109 0 0 Z " fill="#FCCF66" transform="translate(332.484375,182.609375)"/>
<path d="M0 0 C1.97119141 -0.34057617 1.97119141 -0.34057617 4.3515625 -0.29296875 C5.20234375 -0.28330078 6.053125 -0.27363281 6.9296875 -0.26367188 C7.81914062 -0.23853516 8.70859375 -0.21339844 9.625 -0.1875 C10.97078125 -0.16719727 10.97078125 -0.16719727 12.34375 -0.14648438 C14.56309789 -0.11106925 16.78125188 -0.06168461 19 0 C18.48050781 1.01578125 17.96101563 2.0315625 17.42578125 3.078125 C13.26302633 11.27579591 9.41663775 19.45840562 6 28 C0.39 28 -5.22 28 -11 28 C-9.99929696 21.7734033 -8.02710642 16.36648223 -5.5 10.625 C-5.19118896 9.92310547 -4.88237793 9.22121094 -4.56420898 8.49804688 C-3.21264268 5.48891296 -1.83377219 2.75065829 0 0 Z " fill="#B8CAEA" transform="translate(142,354)"/>
<path d="M0 0 C6.27 0 12.54 0 19 0 C30 21.45901639 30 21.45901639 30 28 C24.39 28 18.78 28 13 28 C11.96875 25.421875 10.9375 22.84375 9.875 20.1875 C7.01509931 13.14295636 3.80641303 6.5915933 0 0 Z " fill="#B9CAEA" transform="translate(454,354)"/>
</svg>
