<?xml version="1.0" encoding="UTF-8"?>
<!DOCTYPE svg PUBLIC "-//W3C//DTD SVG 1.1//EN" "http://www.w3.org/Graphics/SVG/1.1/DTD/svg11.dtd">
<svg xmlns="http://www.w3.org/2000/svg" version="1.1" width="512px" height="512px" style="shape-rendering:geometricPrecision; text-rendering:geometricPrecision; image-rendering:optimizeQuality; fill-rule:evenodd; clip-rule:evenodd" xmlns:xlink="http://www.w3.org/1999/xlink">
<g><path style="opacity:0.992" fill="#b2b2b2" d="M 340.5,217.5 C 322.774,247.273 305.274,277.273 288,307.5C 286.059,309.87 283.559,311.203 280.5,311.5C 258.27,314.597 235.937,316.097 213.5,316C 205.902,314.934 198.568,312.934 191.5,310C 169.513,298.677 148.179,286.344 127.5,273C 115.93,260.27 104.596,247.437 93.5,234.5C 74.2103,210.268 54.2103,186.601 33.5,163.5C 29.0983,159.932 26.0983,155.432 24.5,150C 38.6728,123.157 53.5061,96.6568 69,70.5C 72.6814,67.6403 76.8481,66.8069 81.5,68C 129.217,76.7434 176.884,85.7434 224.5,95C 231.838,97.1679 238.838,100.168 245.5,104C 262.498,113.497 279.165,123.497 295.5,134C 305.963,142.781 314.129,153.281 320,165.5C 326.667,180.167 333.333,194.833 340,209.5C 340.497,212.146 340.664,214.813 340.5,217.5 Z"/></g>
<g><path style="opacity:0.996" fill="#4d4d4d" d="M 33.5,163.5 C 54.2103,186.601 74.2103,210.268 93.5,234.5C 93.5,266.833 93.5,299.167 93.5,331.5C 73.5,332.833 53.5,332.833 33.5,331.5C 33.5,275.5 33.5,219.5 33.5,163.5 Z"/></g>
<g><path style="opacity:0.978" fill="#4d4d4d" d="M 340.5,217.5 C 341.493,255.427 341.827,293.427 341.5,331.5C 321.167,332.833 300.833,332.833 280.5,331.5C 280.5,324.833 280.5,318.167 280.5,311.5C 283.559,311.203 286.059,309.87 288,307.5C 305.274,277.273 322.774,247.273 340.5,217.5 Z"/></g>
<g><path style="opacity:0.987" fill="#0091c6" d="M 511.5,320.5 C 511.5,341.5 511.5,362.5 511.5,383.5C 511.167,383.5 510.833,383.5 510.5,383.5C 495.5,383.5 480.5,383.5 465.5,383.5C 454.922,364.14 438.589,355.973 416.5,359C 402.77,362.509 393.104,370.675 387.5,383.5C 333.833,383.5 280.167,383.5 226.5,383.5C 215.284,362.472 197.95,354.638 174.5,360C 162.147,363.858 153.48,371.691 148.5,383.5C 140.167,383.5 131.833,383.5 123.5,383.5C 115.837,366.738 102.671,358.405 84,358.5C 66.2924,359.382 53.4591,367.715 45.5,383.5C 30.8333,383.5 16.1667,383.5 1.5,383.5C 6.55996,367.82 11.7266,352.153 17,336.5C 21.529,332.011 27.029,330.345 33.5,331.5C 53.5,332.833 73.5,332.833 93.5,331.5C 155.833,331.5 218.167,331.5 280.5,331.5C 300.833,332.833 321.167,332.833 341.5,331.5C 346.833,331.5 352.167,331.5 357.5,331.5C 357.333,299.498 357.5,267.498 358,235.5C 358.833,232.667 360.667,230.833 363.5,230C 382.167,229.333 400.833,229.333 419.5,230C 424.136,230.879 428.469,232.545 432.5,235C 457,258.167 480.833,282 504,306.5C 507.327,310.826 509.827,315.492 511.5,320.5 Z"/></g>
<g><path style="opacity:1" fill="#046380" d="M 409.5,306.5 C 432.5,306.5 455.5,306.5 478.5,306.5C 484.183,311.184 489.183,316.517 493.5,322.5C 461.172,323.667 428.838,323.833 396.5,323C 394.266,321.362 392.933,319.195 392.5,316.5C 392.5,293.5 392.5,270.5 392.5,247.5C 397.833,247.5 403.167,247.5 408.5,247.5C 408.17,267.34 408.503,287.007 409.5,306.5 Z"/></g>
<g><path style="opacity:0.902" fill="#187fa2" d="M 409.5,246.5 C 409.5,266.5 409.5,286.5 409.5,306.5C 408.503,287.007 408.17,267.34 408.5,247.5C 403.167,247.5 397.833,247.5 392.5,247.5C 392.5,270.5 392.5,293.5 392.5,316.5C 391.502,293.339 391.169,270.006 391.5,246.5C 397.5,246.5 403.5,246.5 409.5,246.5 Z"/></g>
<g><path style="opacity:0.999" fill="#9edff5" d="M 409.5,246.5 C 414.971,246.491 419.971,247.991 424.5,251C 443.066,269.064 461.066,287.564 478.5,306.5C 455.5,306.5 432.5,306.5 409.5,306.5C 409.5,286.5 409.5,266.5 409.5,246.5 Z"/></g>
<g><path style="opacity:0.977" fill="#010101" d="M 123.5,383.5 C 125.847,389.241 127.18,395.241 127.5,401.5C 125.121,427.379 110.954,441.379 85,443.5C 65.0331,442.687 51.3664,433.021 44,414.5C 42.9497,410.197 42.1164,405.863 41.5,401.5C 42.7016,395.495 44.0349,389.495 45.5,383.5C 53.4591,367.715 66.2924,359.382 84,358.5C 102.671,358.405 115.837,366.738 123.5,383.5 Z"/></g>
<g><path style="opacity:0.978" fill="#010202" d="M 226.5,383.5 C 227.836,389.521 229.169,395.521 230.5,401.5C 227.606,427.529 213.106,441.529 187,443.5C 161.046,441.379 146.879,427.379 144.5,401.5C 145.004,395.288 146.338,389.288 148.5,383.5C 153.48,371.691 162.147,363.858 174.5,360C 197.95,354.638 215.284,362.472 226.5,383.5 Z"/></g>
<g><path style="opacity:0.978" fill="#010202" d="M 465.5,383.5 C 466.965,389.495 468.298,395.495 469.5,401.5C 468.16,420.35 458.827,433.517 441.5,441C 416.198,447.909 397.698,439.743 386,416.5C 384.105,411.675 383.272,406.675 383.5,401.5C 383.82,395.241 385.153,389.241 387.5,383.5C 393.104,370.675 402.77,362.509 416.5,359C 438.589,355.973 454.922,364.14 465.5,383.5 Z"/></g>
<g><path style="opacity:1" fill="#c9c9c9" d="M 77.5,375.5 C 99.9979,373.834 110.831,384.168 110,406.5C 102.116,425.097 88.9495,430.264 70.5,422C 60.2684,413.638 57.1017,403.138 61,390.5C 64.8225,383.504 70.3225,378.504 77.5,375.5 Z"/></g>
<g><path style="opacity:1" fill="#c9c9c9" d="M 179.5,375.5 C 198.733,372.928 209.733,381.095 212.5,400C 209.675,421.428 197.675,429.428 176.5,424C 163.242,415.807 159.076,404.307 164,389.5C 167.509,382.855 172.676,378.189 179.5,375.5 Z"/></g>
<g><path style="opacity:1" fill="#c9c9c9" d="M 418.5,375.5 C 437.647,373.045 448.647,381.212 451.5,400C 448.635,421.445 436.635,429.445 415.5,424C 401.152,415.139 397.319,402.972 404,387.5C 407.541,381.78 412.374,377.78 418.5,375.5 Z"/></g>
<g><path style="opacity:1" fill="#036482" d="M 1.5,383.5 C 16.1667,383.5 30.8333,383.5 45.5,383.5C 44.0349,389.495 42.7016,395.495 41.5,401.5C 28.7722,401.92 16.1056,401.42 3.5,400C 1.92975,398.603 0.596413,397.103 -0.5,395.5C -0.5,392.833 -0.5,390.167 -0.5,387.5C 0.344644,386.329 1.01131,384.995 1.5,383.5 Z"/></g>
<g><path style="opacity:1" fill="#036381" d="M 123.5,383.5 C 131.833,383.5 140.167,383.5 148.5,383.5C 146.338,389.288 145.004,395.288 144.5,401.5C 138.833,401.5 133.167,401.5 127.5,401.5C 127.18,395.241 125.847,389.241 123.5,383.5 Z"/></g>
<g><path style="opacity:1" fill="#036481" d="M 226.5,383.5 C 280.167,383.5 333.833,383.5 387.5,383.5C 385.153,389.241 383.82,395.241 383.5,401.5C 332.5,401.5 281.5,401.5 230.5,401.5C 229.169,395.521 227.836,389.521 226.5,383.5 Z"/></g>
<g><path style="opacity:1" fill="#036482" d="M 465.5,383.5 C 480.5,383.5 495.5,383.5 510.5,383.5C 508.203,393.627 501.87,399.461 491.5,401C 484.174,401.5 476.841,401.666 469.5,401.5C 468.298,395.495 466.965,389.495 465.5,383.5 Z"/></g>
</svg>
